<svg width="206" height="40" viewBox="0 0 206 40" fill="none" xmlns="http://www.w3.org/2000/svg">
<g clip-path="url(#clip0_1205_16)">
<path d="M11.3174 32.119L9.36506 28.5898C7.72773 25.6299 8.69939 21.8452 11.5353 20.1363L13.4877 23.6656C15.125 26.6254 14.1533 30.4102 11.3174 32.119Z" fill="url(#paint0_linear_1205_16)"/>
<path d="M11.7929 8L13.7453 11.5293C15.3826 14.4891 14.4109 18.2738 11.575 19.9827L9.62267 16.4534C7.98534 13.4936 8.957 9.70886 11.7929 8Z" fill="url(#paint1_linear_1205_16)"/>
<path d="M0 19.8019L3.38153 17.7643C6.21746 16.0554 9.84376 17.0695 11.4811 20.0293L8.09956 22.067C5.26362 23.7758 1.63733 22.7617 0 19.8019Z" fill="url(#paint2_linear_1205_16)"/>
<path d="M23.1103 20.3171L19.7288 22.3548C16.8929 24.0636 13.2666 23.0495 11.6292 20.0897L15.0108 18.0521C17.8467 16.3432 21.473 17.3573 23.1103 20.3171Z" fill="url(#paint3_linear_1205_16)"/>
<path d="M30.2 12.6H33.9V28H30.2V12.6ZM38.18 16.28C39.26 16.28 40.18 16.5 40.94 16.94C41.7133 17.38 42.3 18 42.7 18.8C43.1133 19.5867 43.32 20.5333 43.32 21.64V28H39.6V22.2C39.6 21.2533 39.3667 20.54 38.9 20.06C38.4467 19.5667 37.78 19.32 36.9 19.32C36.2867 19.32 35.7533 19.4533 35.3 19.72C34.86 19.9733 34.5133 20.34 34.26 20.82C34.02 21.2867 33.9 21.8467 33.9 22.5L32.72 21.88C32.88 20.6667 33.2133 19.6467 33.72 18.82C34.2267 17.9933 34.86 17.3667 35.62 16.94C36.3933 16.5 37.2467 16.28 38.18 16.28ZM52.1916 28.32C50.7516 28.32 49.4916 28.0667 48.4116 27.56C47.3316 27.0533 46.4916 26.3467 45.8916 25.44C45.2916 24.5333 44.9916 23.4867 44.9916 22.3C44.9916 21.1 45.2916 20.0533 45.8916 19.16C46.4916 18.2533 47.3316 17.5467 48.4116 17.04C49.5049 16.5333 50.7649 16.28 52.1916 16.28C53.6316 16.28 54.8916 16.5333 55.9716 17.04C57.0516 17.5467 57.8916 18.2533 58.4916 19.16C59.1049 20.0533 59.4116 21.1 59.4116 22.3C59.4116 23.5 59.1049 24.5533 58.4916 25.46C57.8916 26.3533 57.0516 27.0533 55.9716 27.56C54.8916 28.0667 53.6316 28.32 52.1916 28.32ZM52.1916 25.52C52.9249 25.52 53.5449 25.3933 54.0516 25.14C54.5716 24.8733 54.9649 24.5 55.2316 24.02C55.5116 23.54 55.6516 22.9667 55.6516 22.3C55.6516 21.6333 55.5116 21.06 55.2316 20.58C54.9649 20.0867 54.5716 19.7133 54.0516 19.46C53.5449 19.1933 52.9249 19.06 52.1916 19.06C51.4849 19.06 50.8716 19.1933 50.3516 19.46C49.8316 19.7133 49.4316 20.0867 49.1516 20.58C48.8716 21.06 48.7316 21.6333 48.7316 22.3C48.7316 22.9667 48.8716 23.54 49.1516 24.02C49.4316 24.5 49.8316 24.8733 50.3516 25.14C50.8716 25.3933 51.4849 25.52 52.1916 25.52ZM60.6561 16.6H64.3561L65.0961 21.04V28H61.3761V20.48L60.6561 16.6ZM69.0961 16.28C70.1361 16.28 71.0161 16.5 71.7361 16.94C72.4694 17.38 73.0228 18 73.3961 18.8C73.7828 19.5867 73.9761 20.5333 73.9761 21.64V28H70.2561V22.2C70.2561 21.2533 70.0494 20.54 69.6361 20.06C69.2228 19.5667 68.6161 19.32 67.8161 19.32C67.2561 19.32 66.7694 19.4533 66.3561 19.72C65.9561 19.9733 65.6428 20.34 65.4161 20.82C65.2028 21.2867 65.0961 21.8467 65.0961 22.5L63.9161 21.88C64.0628 20.6667 64.3761 19.6467 64.8561 18.82C65.3494 17.9933 65.9561 17.3667 66.6761 16.94C67.4094 16.5 68.2161 16.28 69.0961 16.28ZM77.9561 16.28C78.9961 16.28 79.8828 16.5 80.6161 16.94C81.3494 17.38 81.9028 18 82.2761 18.8C82.6628 19.5867 82.8561 20.5333 82.8561 21.64V28H79.1361V22.2C79.1361 21.2533 78.9294 20.54 78.5161 20.06C78.1028 19.5667 77.4961 19.32 76.6961 19.32C76.1361 19.32 75.6494 19.4533 75.2361 19.72C74.8361 19.9733 74.5228 20.34 74.2961 20.82C74.0828 21.2867 73.9761 21.8467 73.9761 22.5L72.7961 21.88C72.9428 20.6667 73.2561 19.6467 73.7361 18.82C74.2161 17.9933 74.8228 17.3667 75.5561 16.94C76.2894 16.5 77.0894 16.28 77.9561 16.28ZM91.6423 28.32C90.2823 28.32 89.0623 28.0667 87.9823 27.56C86.9157 27.0533 86.0757 26.3467 85.4623 25.44C84.849 24.5333 84.5423 23.4733 84.5423 22.26C84.5423 21.0733 84.8357 20.0333 85.4223 19.14C86.009 18.2467 86.8157 17.5467 87.8423 17.04C88.8823 16.5333 90.0557 16.28 91.3623 16.28C92.6957 16.28 93.8423 16.5733 94.8023 17.16C95.7623 17.7467 96.5023 18.5733 97.0223 19.64C97.5423 20.7067 97.8023 21.96 97.8023 23.4H87.5223V21.06H95.7623L94.4223 21.9C94.3823 21.2733 94.229 20.7467 93.9623 20.32C93.709 19.88 93.369 19.5467 92.9423 19.32C92.5157 19.08 92.009 18.96 91.4223 18.96C90.7823 18.96 90.229 19.0867 89.7623 19.34C89.2957 19.5933 88.929 19.9467 88.6623 20.4C88.409 20.8533 88.2823 21.38 88.2823 21.98C88.2823 22.74 88.449 23.3867 88.7823 23.92C89.129 24.4533 89.6223 24.86 90.2623 25.14C90.9157 25.42 91.709 25.56 92.6423 25.56C93.4957 25.56 94.349 25.4467 95.2023 25.22C96.0557 24.98 96.8223 24.6467 97.5023 24.22V26.64C96.729 27.1733 95.8423 27.5867 94.8423 27.88C93.8557 28.1733 92.789 28.32 91.6423 28.32ZM99.6531 12.6H103.353V28H99.6531V12.6ZM116.107 28L115.607 23.86L116.147 22.3L115.607 20.76L116.107 16.6H119.967L119.267 22.3L119.967 28H116.107ZM117.027 22.3C116.827 23.5133 116.447 24.5733 115.887 25.48C115.327 26.3733 114.62 27.0733 113.767 27.58C112.914 28.0733 111.954 28.32 110.887 28.32C109.767 28.32 108.78 28.0667 107.927 27.56C107.087 27.0533 106.427 26.3533 105.947 25.46C105.467 24.5533 105.227 23.5 105.227 22.3C105.227 21.1 105.467 20.0533 105.947 19.16C106.427 18.2533 107.087 17.5467 107.927 17.04C108.78 16.5333 109.767 16.28 110.887 16.28C111.954 16.28 112.914 16.5333 113.767 17.04C114.62 17.5333 115.327 18.2267 115.887 19.12C116.46 20.0133 116.84 21.0733 117.027 22.3ZM108.987 22.3C108.987 22.9133 109.114 23.46 109.367 23.94C109.62 24.4067 109.967 24.78 110.407 25.06C110.86 25.3267 111.38 25.46 111.967 25.46C112.554 25.46 113.107 25.3267 113.627 25.06C114.16 24.78 114.627 24.4067 115.027 23.94C115.427 23.46 115.727 22.9133 115.927 22.3C115.727 21.6867 115.427 21.1467 115.027 20.68C114.627 20.2 114.16 19.8267 113.627 19.56C113.107 19.28 112.554 19.14 111.967 19.14C111.38 19.14 110.86 19.28 110.407 19.56C109.967 19.8267 109.62 20.2 109.367 20.68C109.114 21.1467 108.987 21.6867 108.987 22.3ZM122.075 12.6H125.775V20.06L125.275 21.04V23.72L125.775 24.68V28H122.075V12.6ZM124.535 22.3C124.735 21.0733 125.115 20.0133 125.675 19.12C126.235 18.2267 126.942 17.5333 127.795 17.04C128.648 16.5333 129.608 16.28 130.675 16.28C131.795 16.28 132.775 16.5333 133.615 17.04C134.468 17.5467 135.135 18.2533 135.615 19.16C136.095 20.0533 136.335 21.1 136.335 22.3C136.335 23.5 136.095 24.5533 135.615 25.46C135.135 26.3533 134.468 27.0533 133.615 27.56C132.775 28.0667 131.795 28.32 130.675 28.32C129.608 28.32 128.648 28.0733 127.795 27.58C126.942 27.0733 126.235 26.3733 125.675 25.48C125.115 24.5733 124.735 23.5133 124.535 22.3ZM132.575 22.3C132.575 21.6867 132.448 21.1467 132.195 20.68C131.942 20.2 131.588 19.8267 131.135 19.56C130.695 19.28 130.182 19.14 129.595 19.14C129.008 19.14 128.448 19.28 127.915 19.56C127.395 19.8267 126.935 20.2 126.535 20.68C126.148 21.1467 125.848 21.6867 125.635 22.3C125.848 22.9133 126.148 23.46 126.535 23.94C126.935 24.4067 127.395 24.78 127.915 25.06C128.448 25.3267 129.008 25.46 129.595 25.46C130.182 25.46 130.695 25.3267 131.135 25.06C131.588 24.78 131.942 24.4067 132.195 23.94C132.448 23.46 132.575 22.9133 132.575 22.3ZM138.088 19.52H143.188V22.48H138.088V19.52ZM155.933 28L155.433 23.7L156.113 22.34L155.453 20.62L156.373 12.6H160.233L159.093 22.02L159.773 28H155.933ZM156.793 22.3C156.593 23.5133 156.213 24.5733 155.653 25.48C155.093 26.3733 154.386 27.0733 153.533 27.58C152.679 28.0733 151.719 28.32 150.653 28.32C149.533 28.32 148.546 28.0667 147.693 27.56C146.853 27.0533 146.193 26.3533 145.713 25.46C145.233 24.5533 144.993 23.5 144.993 22.3C144.993 21.1 145.233 20.0533 145.713 19.16C146.193 18.2533 146.853 17.5467 147.693 17.04C148.546 16.5333 149.533 16.28 150.653 16.28C151.719 16.28 152.679 16.5333 153.533 17.04C154.386 17.5333 155.093 18.2267 155.653 19.12C156.226 20.0133 156.606 21.0733 156.793 22.3ZM148.753 22.3C148.753 22.9133 148.879 23.46 149.133 23.94C149.386 24.4067 149.733 24.78 150.173 25.06C150.626 25.3267 151.146 25.46 151.733 25.46C152.319 25.46 152.873 25.3267 153.393 25.06C153.926 24.78 154.393 24.4067 154.793 23.94C155.193 23.46 155.493 22.9133 155.693 22.3C155.493 21.6867 155.193 21.1467 154.793 20.68C154.393 20.2 153.926 19.8267 153.393 19.56C152.873 19.28 152.319 19.14 151.733 19.14C151.146 19.14 150.626 19.28 150.173 19.56C149.733 19.8267 149.386 20.2 149.133 20.68C148.879 21.1467 148.753 21.6867 148.753 22.3ZM168.461 28.32C167.021 28.32 165.761 28.0667 164.681 27.56C163.601 27.0533 162.761 26.3467 162.161 25.44C161.561 24.5333 161.261 23.4867 161.261 22.3C161.261 21.1 161.561 20.0533 162.161 19.16C162.761 18.2533 163.601 17.5467 164.681 17.04C165.774 16.5333 167.034 16.28 168.461 16.28C169.901 16.28 171.161 16.5333 172.241 17.04C173.321 17.5467 174.161 18.2533 174.761 19.16C175.374 20.0533 175.681 21.1 175.681 22.3C175.681 23.5 175.374 24.5533 174.761 25.46C174.161 26.3533 173.321 27.0533 172.241 27.56C171.161 28.0667 169.901 28.32 168.461 28.32ZM168.461 25.52C169.194 25.52 169.814 25.3933 170.321 25.14C170.841 24.8733 171.234 24.5 171.501 24.02C171.781 23.54 171.921 22.9667 171.921 22.3C171.921 21.6333 171.781 21.06 171.501 20.58C171.234 20.0867 170.841 19.7133 170.321 19.46C169.814 19.1933 169.194 19.06 168.461 19.06C167.754 19.06 167.141 19.1933 166.621 19.46C166.101 19.7133 165.701 20.0867 165.421 20.58C165.141 21.06 165.001 21.6333 165.001 22.3C165.001 22.9667 165.141 23.54 165.421 24.02C165.701 24.5 166.101 24.8733 166.621 25.14C167.141 25.3933 167.754 25.52 168.461 25.52ZM190.844 23.28C190.738 24.2667 190.364 25.14 189.724 25.9C189.098 26.66 188.284 27.2533 187.284 27.68C186.298 28.1067 185.184 28.32 183.944 28.32C182.571 28.32 181.358 28.0667 180.304 27.56C179.251 27.0533 178.431 26.3467 177.844 25.44C177.258 24.5333 176.964 23.4867 176.964 22.3C176.964 21.1133 177.258 20.0733 177.844 19.18C178.431 18.2733 179.251 17.5667 180.304 17.06C181.358 16.54 182.571 16.28 183.944 16.28C185.184 16.28 186.298 16.4933 187.284 16.92C188.284 17.3467 189.098 17.94 189.724 18.7C190.364 19.4467 190.738 20.3267 190.844 21.34H187.144C186.998 20.6067 186.631 20.0467 186.044 19.66C185.471 19.26 184.771 19.06 183.944 19.06C183.291 19.06 182.718 19.1867 182.224 19.44C181.744 19.6933 181.371 20.0667 181.104 20.56C180.838 21.04 180.704 21.62 180.704 22.3C180.704 22.98 180.838 23.56 181.104 24.04C181.371 24.52 181.744 24.8867 182.224 25.14C182.718 25.3933 183.291 25.52 183.944 25.52C184.784 25.52 185.491 25.32 186.064 24.92C186.638 24.5067 186.998 23.96 187.144 23.28H190.844ZM205.403 24.34C205.403 25.1933 205.15 25.92 204.643 26.52C204.15 27.1067 203.423 27.5533 202.463 27.86C201.503 28.1667 200.337 28.32 198.963 28.32C197.563 28.32 196.337 28.1467 195.283 27.8C194.23 27.4533 193.41 26.9667 192.823 26.34C192.237 25.7133 191.923 24.9867 191.883 24.16H195.663C195.743 24.4933 195.93 24.7867 196.223 25.04C196.53 25.2933 196.923 25.4867 197.403 25.62C197.883 25.74 198.45 25.8 199.103 25.8C199.983 25.8 200.65 25.7067 201.103 25.52C201.557 25.3333 201.783 25.0533 201.783 24.68C201.783 24.4 201.617 24.1867 201.283 24.04C200.963 23.8933 200.383 23.7867 199.543 23.72L197.463 23.56C196.157 23.4533 195.117 23.2467 194.343 22.94C193.57 22.62 193.017 22.2133 192.683 21.72C192.363 21.2267 192.203 20.6733 192.203 20.06C192.203 19.22 192.463 18.5267 192.983 17.98C193.517 17.42 194.25 17 195.183 16.72C196.117 16.4267 197.21 16.28 198.463 16.28C199.717 16.28 200.83 16.4467 201.803 16.78C202.79 17.1133 203.577 17.5733 204.163 18.16C204.763 18.7467 205.103 19.4333 205.183 20.22H201.403C201.35 19.9533 201.203 19.7067 200.963 19.48C200.737 19.2533 200.403 19.0733 199.963 18.94C199.537 18.7933 198.977 18.72 198.283 18.72C197.497 18.72 196.897 18.8067 196.483 18.98C196.07 19.1533 195.863 19.4067 195.863 19.74C195.863 19.9933 195.99 20.2 196.243 20.36C196.497 20.5067 196.977 20.6067 197.683 20.66L200.383 20.86C201.663 20.9667 202.663 21.1733 203.383 21.48C204.117 21.7733 204.637 22.16 204.943 22.64C205.25 23.12 205.403 23.6867 205.403 24.34Z" fill="white"/>
</g>
<defs>
<linearGradient id="paint0_linear_1205_16" x1="11.4374" y1="30.8267" x2="11.6306" y2="19.8273" gradientUnits="userSpaceOnUse">
<stop stop-color="#FCECC5"/>
<stop offset="1" stop-color="#EEBD52"/>
</linearGradient>
<linearGradient id="paint1_linear_1205_16" x1="11.6729" y1="9.29233" x2="11.4798" y2="20.2917" gradientUnits="userSpaceOnUse">
<stop stop-color="#FCECC5"/>
<stop offset="1" stop-color="#EEBD52"/>
</linearGradient>
<linearGradient id="paint2_linear_1205_16" x1="1.23823" y1="19.9272" x2="11.7777" y2="20.0971" gradientUnits="userSpaceOnUse">
<stop stop-color="#FCECC5"/>
<stop offset="1" stop-color="#EEBD52"/>
</linearGradient>
<linearGradient id="paint3_linear_1205_16" x1="21.8721" y1="20.1918" x2="11.3327" y2="20.022" gradientUnits="userSpaceOnUse">
<stop stop-color="#FCECC5"/>
<stop offset="1" stop-color="#EEBD52"/>
</linearGradient>
<clipPath id="clip0_1205_16">
<rect width="206" height="40" fill="white"/>
</clipPath>
</defs>
</svg>
